<svg class="border shadow-md" viewBox="0 0 1024.711111111111 576.4" style="width: 1024.71px; height: 576.4px;" xmlns="http://www.w3.org/2000/svg" preserveAspectRatio="none"><rect class="bg" id="bg" x="0" y="0" width="1024.711111111111" height="576.4" fill="#ffffff"/><g transform="rotate(0 512.3555555555555 288.2)"><path id="-1" d="M -612.36 -42.05 S -316.18 -78.07&#10;            0.00 -42.05 296.18 -78.07&#10;            612.36 -42.05 908.53 -100.05&#10;            1224.71 -42.05 1520.89 -78.07&#10;            1837.07 -42.05 h 110 V 776.4 H -612.36 Z" fill="#004105"/><path id="0" d="M -612.36 30.00 S -324.00 -26.00&#10;            0.00 30.00 296.18 -6.02&#10;            612.36 30.00 908.53 -40.00&#10;            1224.71 30.00 1520.89 -6.02&#10;            1837.07 30.00 h 110 V 776.4 H -612.36 Z" fill="#105617"/><path id="1" d="M -612.36 102.05 S -316.18 66.03&#10;            0.00 102.05 296.18 56.05&#10;            612.36 102.05 908.53 66.03&#10;            1224.71 102.05 1431.07 66.03&#10;            1837.07 102.05 h 110 V 776.4 H -612.36 Z" fill="#206b29"/><path id="2" d="M -612.36 174.10 S -316.18 138.07&#10;            0.00 174.10 217.36 138.07&#10;            612.36 174.10 908.53 138.07&#10;            1224.71 174.10 1520.89 138.07&#10;            1837.07 174.10 h 110 V 776.4 H -612.36 Z" fill="#30803b"/><path id="3" d="M -612.36 246.15 S -316.18 206.15&#10;            0.00 246.15 22.36 197.15&#10;            612.36 246.15 908.53 198.15&#10;            1224.71 246.15 1520.89 210.12&#10;            1837.07 246.15 h 110 V 776.4 H -612.36 Z" fill="#40954d"/><path id="4" d="M -612.36 318.20 S -316.18 251.20&#10;            0.00 318.20 296.18 273.20&#10;            612.36 318.20 881.71 249.20&#10;            1224.71 318.20 1520.89 282.18&#10;            1837.07 318.20 h 110 V 776.4 H -612.36 Z" fill="#50aa5f"/><path id="5" d="M -612.36 390.25 S -316.18 342.25&#10;            0.00 390.25 296.18 324.25&#10;            612.36 390.25 657.71 354.23&#10;            1224.71 390.25 1497.07 354.23&#10;            1837.07 390.25 h 110 V 776.4 H -612.36 Z" fill="#60bf71"/><path id="6" d="M -612.36 462.30 S -587.00 426.27&#10;            0.00 462.30 296.18 426.27&#10;            612.36 462.30 881.71 426.27&#10;            1224.71 462.30 1520.89 426.27&#10;            1837.07 462.30 h 110 V 776.4 H -612.36 Z" fill="#70d483"/><path id="7" d="M -612.36 534.35 S -485.00 498.32&#10;            0.00 534.35 296.18 498.32&#10;            612.36 534.35 776.71 464.35&#10;            1224.71 534.35 1496.07 493.35&#10;            1837.07 534.35 h 110 V 776.4 H -612.36 Z" fill="#80e995"/></g></svg>