<?xml version="1.0" encoding="UTF-8"?>
<!DOCTYPE svg PUBLIC "-//W3C//DTD SVG 1.1//EN" "http://www.w3.org/Graphics/SVG/1.1/DTD/svg11.dtd">
<svg xmlns="http://www.w3.org/2000/svg" version="1.1" width="512px" height="512px" style="shape-rendering:geometricPrecision; text-rendering:geometricPrecision; image-rendering:optimizeQuality; fill-rule:evenodd; clip-rule:evenodd" xmlns:xlink="http://www.w3.org/1999/xlink">
<g><path style="opacity:0.985" fill="#000000" d="M -0.5,373.5 C -0.5,324.167 -0.5,274.833 -0.5,225.5C 8.10427,219.408 16.6043,213.075 25,206.5C 25.5,184.503 25.6666,162.503 25.5,140.5C 35.8333,140.5 46.1667,140.5 56.5,140.5C 56.3334,154.171 56.5001,167.837 57,181.5C 75.7255,166.437 94.7255,151.77 114,137.5C 129.942,148.943 145.442,160.943 160.5,173.5C 159.352,175.149 158.019,176.649 156.5,178C 141.667,189.5 126.833,201 112,212.5C 111.5,266.166 111.333,319.832 111.5,373.5C 74.1667,373.5 36.8333,373.5 -0.5,373.5 Z M 40.5,287.5 C 50.1667,287.5 59.8333,287.5 69.5,287.5C 69.5,302.167 69.5,316.833 69.5,331.5C 59.8333,331.5 50.1667,331.5 40.5,331.5C 40.5,316.833 40.5,302.167 40.5,287.5 Z"/></g>
<g><path style="opacity:0.987" fill="#000000" d="M 253.5,137.5 C 254.873,137.343 256.207,137.51 257.5,138C 295,167.5 332.5,197 370,226.5C 370.5,275.499 370.667,324.499 370.5,373.5C 350.167,373.5 329.833,373.5 309.5,373.5C 309.5,345.5 309.5,317.5 309.5,289.5C 273.5,289.5 237.5,289.5 201.5,289.5C 201.5,317.5 201.5,345.5 201.5,373.5C 181.167,373.5 160.833,373.5 140.5,373.5C 140.333,324.499 140.5,275.499 141,226.5C 178.687,196.97 216.187,167.303 253.5,137.5 Z"/></g>
<g><path style="opacity:0.986" fill="#000000" d="M 511.5,225.5 C 511.5,274.833 511.5,324.167 511.5,373.5C 474.167,373.5 436.833,373.5 399.5,373.5C 399.667,319.832 399.5,266.166 399,212.5C 383,199.833 367,187.167 351,174.5C 350.333,173.833 350.333,173.167 351,172.5C 366.06,160.435 381.393,148.769 397,137.5C 435.299,166.725 473.466,196.058 511.5,225.5 Z M 441.5,287.5 C 451.167,287.5 460.833,287.5 470.5,287.5C 470.5,302.167 470.5,316.833 470.5,331.5C 460.833,331.5 451.167,331.5 441.5,331.5C 441.5,316.833 441.5,302.167 441.5,287.5 Z"/></g>
<g><path style="opacity:0.948" fill="#000000" d="M 230.5,318.5 C 247.167,318.5 263.833,318.5 280.5,318.5C 280.5,337.167 280.5,355.833 280.5,374.5C 263.833,374.5 247.167,374.5 230.5,374.5C 230.5,355.833 230.5,337.167 230.5,318.5 Z"/></g>
</svg>
