<?xml version="1.0" encoding="UTF-8" standalone="no"?>
<!DOCTYPE svg PUBLIC "-//W3C//DTD SVG 1.1//EN" "http://www.w3.org/Graphics/SVG/1.1/DTD/svg11.dtd">
<svg xmlns="http://www.w3.org/2000/svg" version="1.1" viewBox="0.00 0.00 960.00 960.00">
<g stroke-width="2.00" fill="none" stroke-linecap="butt">
<path stroke="#ffffff" vector-effect="non-scaling-stroke" d="
  M 325.95 375.74
  Q 325.95 374.22 326.63 375.58
  Q 348.46 419.11 369.99 462.54
  C 370.91 464.40 372.03 467.08 372.03 468.75
  C 372.13 503.84 372.10 538.92 372.27 574.00
  Q 372.49 618.33 372.60 662.67
  Q 372.61 663.24 373.16 663.38
  Q 374.95 663.81 376.67 663.18
  Q 377.23 662.98 377.21 662.38
  Q 376.70 648.94 376.80 635.50
  Q 377.00 606.88 377.14 578.25
  C 377.29 544.54 377.25 510.88 377.33 477.34
  Q 377.33 477.10 377.44 477.31
  L 435.59 594.17
  A 0.48 0.48 0.0 0 0 436.45 594.17
  L 518.05 431.73
  A 0.91 0.91 0.0 0 1 519.26 431.32
  C 528.33 435.72 537.58 437.22 547.28 439.42
  Q 558.26 441.92 569.44 442.08
  A 0.32 0.31 13.6 0 1 569.72 442.53
  L 459.97 662.04
  Q 459.12 663.76 461.03 663.72
  L 463.46 663.67
  A 3.03 3.02 -77.2 0 0 466.12 661.99
  L 500.64 592.89
  A 0.47 0.47 0.0 0 1 501.48 592.89
  Q 517.49 625.33 533.70 657.80
  Q 535.27 660.94 536.15 662.23
  A 3.07 3.06 -17.5 0 0 538.69 663.55
  L 540.87 663.54
  Q 542.52 663.53 541.79 662.06
  L 504.80 587.65
  A 3.52 3.49 45.2 0 1 504.80 584.54
  L 528.44 537.31
  A 0.16 0.15 -48.6 0 1 528.70 537.29
  L 618.12 661.89
  Q 619.33 663.58 621.40 663.64
  L 623.91 663.72
  Q 626.08 663.79 624.82 662.02
  L 532.57 533.45
  A 3.71 3.70 40.5 0 1 532.26 529.63
  L 575.47 443.30
  A 2.17 2.16 -77.5 0 1 577.34 442.10
  C 596.99 441.54 616.41 437.18 634.25 428.93
  Q 683.08 406.35 706.74 356.84
  C 709.90 350.23 714.41 340.55 712.97 337.53
  Q 709.47 330.23 703.15 320.42
  Q 702.16 318.87 702.46 317.49
  Q 713.64 267.44 696.33 219.30
  Q 695.29 216.42 691.82 214.94
  Q 680.36 210.04 673.28 207.84
  Q 671.61 207.31 670.92 206.04
  Q 663.77 192.80 655.03 181.94
  C 653.45 179.98 652.77 180.47 650.50 180.33
  Q 633.76 179.25 624.44 179.49
  C 622.75 179.53 621.17 179.03 619.99 178.01
  Q 612.28 171.32 603.80 165.64
  C 602.41 164.71 600.99 163.36 599.25 163.72
  C 569.24 169.93 541.77 183.31 518.76 203.41
  Q 513.73 207.79 508.80 212.29
  Q 507.62 213.37 505.95 213.39
  C 499.69 213.47 493.32 214.10 487.08 213.81
  C 481.80 213.57 476.54 213.30 471.25 213.33
  C 438.78 213.56 406.21 214.18 373.76 213.56
  Q 344.77 213.00 315.78 213.56
  C 314.47 213.58 313.05 213.30 311.73 213.16
  A 0.55 0.54 -9.2 0 0 311.17 213.93
  Q 317.41 227.17 323.97 240.20
  C 371.07 333.79 417.92 427.50 464.79 521.19
  Q 465.89 523.39 464.57 526.06
  Q 450.58 554.25 436.32 582.09
  A 0.37 0.37 0.0 0 1 435.66 582.09
  L 252.00 213.78
  Q 251.69 213.16 250.99 213.21
  L 246.82 213.51
  A 0.53 0.52 -14.7 0 0 246.38 214.25
  Q 250.14 222.29 254.16 230.33
  Q 284.64 291.26 315.04 352.23
  C 317.55 357.25 320.18 361.37 320.33 366.51
  Q 320.40 369.01 320.40 371.50
  Q 320.48 517.00 320.56 662.27
  Q 320.56 663.59 321.88 663.55
  L 324.77 663.47
  A 1.24 1.24 0.0 0 0 325.98 662.23
  L 325.95 375.74"
/>
























<path stroke="#ffffff" vector-effect="non-scaling-stroke" d="
  M 644.92 417.32
  C 673.63 400.24 696.38 373.61 707.15 341.68
  C 707.91 339.42 707.15 337.87 706.09 335.97
  Q 683.29 295.26 641.66 275.30
  C 634.68 271.95 626.83 269.27 619.21 266.76
  Q 617.83 266.31 618.74 267.44
  C 641.00 295.16 656.70 331.13 647.40 367.22
  C 640.37 394.56 623.92 416.71 598.91 429.83
  C 594.88 431.95 589.91 433.73 585.69 435.24
  Q 581.10 436.89 585.94 436.26
  C 607.39 433.47 626.22 428.45 644.92 417.32"
/>
<path stroke="#ffffff" vector-effect="non-scaling-stroke" d="
  M 407.21 273.02
  C 406.28 273.13 405.02 272.84 403.88 272.84
  Q 389.44 272.87 375.15 272.41
  A 0.66 0.66 0.0 0 0 374.47 273.07
  Q 374.76 299.38 374.66 325.00
  Q 374.65 328.89 375.69 331.02
  Q 390.07 360.34 433.54 447.10
  Q 439.47 458.92 445.55 470.65
  C 452.89 484.80 459.81 499.33 467.12 513.58
  C 467.57 514.46 467.86 515.63 468.33 516.56
  A 0.58 0.57 44.9 0 0 469.36 516.56
  L 487.98 479.35
  A 2.14 2.14 0.0 0 0 487.77 477.12
  L 459.03 438.92
  Q 457.56 436.98 459.94 437.48
  Q 487.06 443.28 509.05 427.07
  A 0.69 0.69 0.0 0 0 509.00 425.92
  C 497.73 419.09 489.04 410.68 481.05 399.65
  C 454.65 363.23 446.12 317.60 457.49 273.66
  Q 457.69 272.89 456.89 272.85
  Q 433.61 271.77 409.89 272.81
  Q 408.55 272.87 407.21 273.02"
/>
<path stroke="#ffffff" vector-effect="non-scaling-stroke" d="
  M 346.85 273.65
  L 368.44 316.67
  Q 369.23 318.24 369.23 316.48
  L 369.29 273.39
  A 0.64 0.64 0.0 0 0 368.64 272.75
  L 347.21 273.06
  Q 346.55 273.07 346.85 273.65"
/>
<path stroke="#ffffff" vector-effect="non-scaling-stroke" d="
  M 510.86 432.27
  C 499.70 440.53 484.24 445.78 470.29 444.24
  A 0.28 0.28 0.0 0 0 470.04 444.69
  L 491.00 472.37
  A 0.30 0.30 0.0 0 0 491.51 472.32
  L 511.10 433.36
  Q 511.21 433.14 511.21 432.91
  Q 511.20 432.69 511.22 432.48
  A 0.23 0.23 0.0 0 0 510.86 432.27"
/>
</g>

<path fill="#ffffff" d="
  M 325.95 375.74
  L 325.98 662.23
  A 1.24 1.24 0.0 0 1 324.77 663.47
  L 321.88 663.55
  Q 320.56 663.59 320.56 662.27
  Q 320.48 517.00 320.40 371.50
  Q 320.40 369.01 320.33 366.51
  C 320.18 361.37 317.55 357.25 315.04 352.23
  Q 284.64 291.26 254.16 230.33
  Q 250.14 222.29 246.38 214.25
  A 0.53 0.52 -14.7 0 1 246.82 213.51
  L 250.99 213.21
  Q 251.69 213.16 252.00 213.78
  L 435.66 582.09
  A 0.37 0.37 0.0 0 0 436.32 582.09
  Q 450.58 554.25 464.57 526.06
  Q 465.89 523.39 464.79 521.19
  C 417.92 427.50 371.07 333.79 323.97 240.20
  Q 317.41 227.17 311.17 213.93
  A 0.55 0.54 -9.2 0 1 311.73 213.16
  C 313.05 213.30 314.47 213.58 315.78 213.56
  Q 344.77 213.00 373.76 213.56
  C 406.21 214.18 438.78 213.56 471.25 213.33
  C 476.54 213.30 481.80 213.57 487.08 213.81
  C 493.32 214.10 499.69 213.47 505.95 213.39
  Q 507.62 213.37 508.80 212.29
  Q 513.73 207.79 518.76 203.41
  C 541.77 183.31 569.24 169.93 599.25 163.72
  C 600.99 163.36 602.41 164.71 603.80 165.64
  Q 612.28 171.32 619.99 178.01
  C 621.17 179.03 622.75 179.53 624.44 179.49
  Q 633.76 179.25 650.50 180.33
  C 652.77 180.47 653.45 179.98 655.03 181.94
  Q 663.77 192.80 670.92 206.04
  Q 671.61 207.31 673.28 207.84
  Q 680.36 210.04 691.82 214.94
  Q 695.29 216.42 696.33 219.30
  Q 713.64 267.44 702.46 317.49
  Q 702.16 318.87 703.15 320.42
  Q 709.47 330.23 712.97 337.53
  C 714.41 340.55 709.90 350.23 706.74 356.84
  Q 683.08 406.35 634.25 428.93
  C 616.41 437.18 596.99 441.54 577.34 442.10
  A 2.17 2.16 -77.5 0 0 575.47 443.30
  L 532.26 529.63
  A 3.71 3.70 40.5 0 0 532.57 533.45
  L 624.82 662.02
  Q 626.08 663.79 623.91 663.72
  L 621.40 663.64
  Q 619.33 663.58 618.12 661.89
  L 528.70 537.29
  A 0.16 0.15 -48.6 0 0 528.44 537.31
  L 504.80 584.54
  A 3.52 3.49 45.2 0 0 504.80 587.65
  L 541.79 662.06
  Q 542.52 663.53 540.87 663.54
  L 538.69 663.55
  A 3.07 3.06 -17.5 0 1 536.15 662.23
  Q 535.27 660.94 533.70 657.80
  Q 517.49 625.33 501.48 592.89
  A 0.47 0.47 0.0 0 0 500.64 592.89
  L 466.12 661.99
  A 3.03 3.02 -77.2 0 1 463.46 663.67
  L 461.03 663.72
  Q 459.12 663.76 459.97 662.04
  L 569.72 442.53
  A 0.32 0.31 13.6 0 0 569.44 442.08
  Q 558.26 441.92 547.28 439.42
  C 537.58 437.22 528.33 435.72 519.26 431.32
  A 0.91 0.91 0.0 0 0 518.05 431.73
  L 436.45 594.17
  A 0.48 0.48 0.0 0 1 435.59 594.17
  L 377.44 477.31
  Q 377.33 477.10 377.33 477.34
  C 377.25 510.88 377.29 544.54 377.14 578.25
  Q 377.00 606.88 376.80 635.50
  Q 376.70 648.94 377.21 662.38
  Q 377.23 662.98 376.67 663.18
  Q 374.95 663.81 373.16 663.38
  Q 372.61 663.24 372.60 662.67
  Q 372.49 618.33 372.27 574.00
  C 372.10 538.92 372.13 503.84 372.03 468.75
  C 372.03 467.08 370.91 464.40 369.99 462.54
  Q 348.46 419.11 326.63 375.58
  Q 325.95 374.22 325.95 375.74
  Z
  M 598.77 169.39
  C 567.59 175.74 538.66 191.32 515.76 213.42
  A 0.27 0.27 0.0 0 0 515.93 213.89
  Q 527.38 214.56 538.52 217.53
  C 539.66 217.84 541.67 218.08 542.51 217.67
  Q 585.91 196.39 634.01 200.11
  Q 634.91 200.18 634.28 199.54
  C 623.55 188.43 612.99 178.37 600.15 169.67
  A 1.85 1.80 55.6 0 0 598.77 169.39
  Z
  M 662.92 205.17
  Q 663.56 205.37 663.82 205.29
  Q 664.31 205.13 664.05 204.69
  Q 660.30 198.45 656.03 192.49
  C 652.65 187.77 651.81 185.72 646.26 185.36
  Q 637.14 184.77 628.23 184.74
  Q 627.36 184.74 628.01 185.32
  Q 634.76 191.42 640.62 198.65
  Q 642.62 201.13 644.48 201.34
  Q 653.89 202.39 662.92 205.17
  Z
  M 689.80 220.21
  C 645.83 199.97 594.58 200.08 550.39 219.95
  Q 549.38 220.41 550.44 220.74
  C 567.98 226.30 584.14 235.16 598.33 246.97
  Q 604.65 252.23 610.61 257.89
  Q 613.00 260.16 616.25 260.81
  C 646.89 266.95 678.86 288.12 697.21 313.31
  A 0.36 0.36 0.0 0 0 697.86 313.17
  Q 707.04 267.45 692.29 223.49
  Q 691.45 220.97 689.80 220.21
  Z
  M 381.25 267.06
  C 406.85 266.62 432.47 266.81 458.04 267.38
  A 1.63 1.62 9.5 0 0 459.63 266.25
  Q 467.81 240.56 484.42 219.34
  Q 484.85 218.79 484.17 218.66
  Q 482.18 218.28 479.75 218.29
  C 439.14 218.49 398.24 217.45 351.75 218.42
  Q 348.70 218.48 345.25 218.33
  C 336.77 217.97 328.26 218.26 319.79 217.96
  A 0.54 0.54 0.0 0 0 319.29 218.74
  L 343.42 266.68
  A 2.05 2.05 0.0 0 0 345.30 267.81
  Q 358.42 267.51 371.92 267.47
  C 375.01 267.47 378.51 267.11 381.25 267.06
  Z
  M 489.08 222.08
  C 448.96 273.50 447.62 343.05 485.04 396.22
  C 501.21 419.20 526.81 433.52 555.04 433.81
  C 563.32 433.89 569.98 433.33 577.73 431.27
  Q 600.83 425.13 617.44 409.17
  C 640.01 387.48 649.92 354.65 642.19 324.30
  C 636.88 303.43 625.27 282.31 611.05 266.45
  C 582.12 234.16 541.13 217.23 497.36 219.10
  C 493.64 219.26 491.69 218.74 489.08 222.08
  Z
  M 644.92 417.32
  C 673.63 400.24 696.38 373.61 707.15 341.68
  C 707.91 339.42 707.15 337.87 706.09 335.97
  Q 683.29 295.26 641.66 275.30
  C 634.68 271.95 626.83 269.27 619.21 266.76
  Q 617.83 266.31 618.74 267.44
  C 641.00 295.16 656.70 331.13 647.40 367.22
  C 640.37 394.56 623.92 416.71 598.91 429.83
  C 594.88 431.95 589.91 433.73 585.69 435.24
  Q 581.10 436.89 585.94 436.26
  C 607.39 433.47 626.22 428.45 644.92 417.32
  Z
  M 407.21 273.02
  C 406.28 273.13 405.02 272.84 403.88 272.84
  Q 389.44 272.87 375.15 272.41
  A 0.66 0.66 0.0 0 0 374.47 273.07
  Q 374.76 299.38 374.66 325.00
  Q 374.65 328.89 375.69 331.02
  Q 390.07 360.34 433.54 447.10
  Q 439.47 458.92 445.55 470.65
  C 452.89 484.80 459.81 499.33 467.12 513.58
  C 467.57 514.46 467.86 515.63 468.33 516.56
  A 0.58 0.57 44.9 0 0 469.36 516.56
  L 487.98 479.35
  A 2.14 2.14 0.0 0 0 487.77 477.12
  L 459.03 438.92
  Q 457.56 436.98 459.94 437.48
  Q 487.06 443.28 509.05 427.07
  A 0.69 0.69 0.0 0 0 509.00 425.92
  C 497.73 419.09 489.04 410.68 481.05 399.65
  C 454.65 363.23 446.12 317.60 457.49 273.66
  Q 457.69 272.89 456.89 272.85
  Q 433.61 271.77 409.89 272.81
  Q 408.55 272.87 407.21 273.02
  Z
  M 346.85 273.65
  L 368.44 316.67
  Q 369.23 318.24 369.23 316.48
  L 369.29 273.39
  A 0.64 0.64 0.0 0 0 368.64 272.75
  L 347.21 273.06
  Q 346.55 273.07 346.85 273.65
  Z
  M 510.86 432.27
  C 499.70 440.53 484.24 445.78 470.29 444.24
  A 0.28 0.28 0.0 0 0 470.04 444.69
  L 491.00 472.37
  A 0.30 0.30 0.0 0 0 491.51 472.32
  L 511.10 433.36
  Q 511.21 433.14 511.21 432.91
  Q 511.20 432.69 511.22 432.48
  A 0.23 0.23 0.0 0 0 510.86 432.27
  Z"
/>




</svg>
