<?xml version="1.0" encoding="UTF-8"?>
<!DOCTYPE svg PUBLIC "-//W3C//DTD SVG 1.1//EN" "http://www.w3.org/Graphics/SVG/1.1/DTD/svg11.dtd">
<svg xmlns="http://www.w3.org/2000/svg" version="1.1" width="512px" height="512px" style="shape-rendering:geometricPrecision; text-rendering:geometricPrecision; image-rendering:optimizeQuality; fill-rule:evenodd; clip-rule:evenodd" xmlns:xlink="http://www.w3.org/1999/xlink">
<g><path style="opacity:0.95" fill="#000000" d="M -0.5,67.5 C 170.167,67.5 340.833,67.5 511.5,67.5C 511.5,175.833 511.5,284.167 511.5,392.5C 446.167,392.5 380.833,392.5 315.5,392.5C 315.5,403.5 315.5,414.5 315.5,425.5C 341.167,425.5 366.833,425.5 392.5,425.5C 392.5,431.5 392.5,437.5 392.5,443.5C 306.833,443.5 221.167,443.5 135.5,443.5C 135.5,437.5 135.5,431.5 135.5,425.5C 155.5,425.5 175.5,425.5 195.5,425.5C 195.5,414.5 195.5,403.5 195.5,392.5C 130.167,392.5 64.8333,392.5 -0.5,392.5C -0.5,284.167 -0.5,175.833 -0.5,67.5 Z M 17.5,85.5 C 176.167,85.5 334.833,85.5 493.5,85.5C 493.5,181.833 493.5,278.167 493.5,374.5C 334.833,374.5 176.167,374.5 17.5,374.5C 17.5,278.167 17.5,181.833 17.5,85.5 Z M 213.5,392.5 C 241.5,392.5 269.5,392.5 297.5,392.5C 297.5,403.5 297.5,414.5 297.5,425.5C 269.5,425.5 241.5,425.5 213.5,425.5C 213.5,414.5 213.5,403.5 213.5,392.5 Z"/></g>
</svg>
