<?xml version="1.0" encoding="UTF-8"?>
<!DOCTYPE svg PUBLIC "-//W3C//DTD SVG 1.1//EN" "http://www.w3.org/Graphics/SVG/1.1/DTD/svg11.dtd">
<svg xmlns="http://www.w3.org/2000/svg" version="1.1" width="512px" height="512px" style="shape-rendering:geometricPrecision; text-rendering:geometricPrecision; image-rendering:optimizeQuality; fill-rule:evenodd; clip-rule:evenodd" xmlns:xlink="http://www.w3.org/1999/xlink">
<g><path style="opacity:0.941" fill="#000000" d="M 32.5,-0.5 C 35.5,-0.5 38.5,-0.5 41.5,-0.5C 52.8991,16.0808 63.7324,33.0808 74,50.5C 75.6549,55.9367 74.1549,60.1034 69.5,63C 61.8406,63.4997 54.1739,63.6664 46.5,63.5C 46.6666,76.1711 46.4999,88.8377 46,101.5C 43.7923,108.11 39.2923,110.276 32.5,108C 30.1898,106.363 28.6898,104.196 28,101.5C 27.5001,88.8377 27.3334,76.1711 27.5,63.5C 19.8261,63.6664 12.1594,63.4997 4.5,63C 2.31305,61.975 0.646381,60.475 -0.5,58.5C -0.5,55.8333 -0.5,53.1667 -0.5,50.5C 10.0723,33.2535 21.0723,16.2535 32.5,-0.5 Z M 36.5,25.5 C 40.7253,31.6001 44.7253,37.9335 48.5,44.5C 40.8333,45.8333 33.1667,45.8333 25.5,44.5C 29.4427,38.2753 33.1093,31.942 36.5,25.5 Z"/></g>
<g><path style="opacity:0.936" fill="#000000" d="M 103.5,-0.5 C 238.167,-0.5 372.833,-0.5 507.5,-0.5C 508.5,1.16667 509.833,2.5 511.5,3.5C 511.5,15.5 511.5,27.5 511.5,39.5C 508.411,44.1206 504.077,45.6206 498.5,44C 496.274,42.7727 494.774,40.9393 494,38.5C 493.5,31.5079 493.334,24.5079 493.5,17.5C 410.833,17.5 328.167,17.5 245.5,17.5C 245.5,82.8333 245.5,148.167 245.5,213.5C 297.834,213.333 350.168,213.5 402.5,214C 409.639,217.462 411.139,222.628 407,229.5C 405.055,230.863 402.888,231.697 400.5,232C 348.834,232.5 297.168,232.667 245.5,232.5C 245.667,252.169 245.5,271.836 245,291.5C 241.935,298.11 237.102,299.777 230.5,296.5C 228.297,294.705 227.131,292.371 227,289.5C 226.5,198.834 226.333,108.167 226.5,17.5C 190.167,17.5 153.833,17.5 117.5,17.5C 117.5,142.833 117.5,268.167 117.5,393.5C 153.833,393.5 190.167,393.5 226.5,393.5C 226.333,379.496 226.5,365.496 227,351.5C 229.524,343.102 234.691,340.935 242.5,345C 243.46,346.419 244.293,347.919 245,349.5C 245.5,364.163 245.667,378.83 245.5,393.5C 328.167,393.5 410.833,393.5 493.5,393.5C 493.5,339.833 493.5,286.167 493.5,232.5C 481.829,232.667 470.162,232.5 458.5,232C 451.474,230.122 448.974,225.622 451,218.5C 452.637,216.19 454.804,214.69 457.5,214C 469.495,213.5 481.495,213.333 493.5,213.5C 493.333,163.166 493.5,112.832 494,62.5C 496.997,55.778 501.83,54.1113 508.5,57.5C 509.288,58.7701 510.288,59.7701 511.5,60.5C 511.5,176.167 511.5,291.833 511.5,407.5C 509.444,410.049 506.778,411.549 503.5,412C 370.124,412.993 236.791,412.66 103.5,411C 100.732,409.238 99.232,406.738 99,403.5C 98.3333,271.5 98.3333,139.5 99,7.5C 99.4506,4.22244 100.951,1.55577 103.5,-0.5 Z"/></g>
<g><path style="opacity:0.929" fill="#000000" d="M -0.5,360.5 C -0.5,357.833 -0.5,355.167 -0.5,352.5C 0.646381,350.525 2.31305,349.025 4.5,348C 12.1594,347.5 19.8261,347.334 27.5,347.5C 27.3333,272.166 27.5,196.833 28,121.5C 30.9414,113.619 36.1081,111.785 43.5,116C 44.717,117.648 45.5503,119.481 46,121.5C 46.5,196.833 46.6667,272.166 46.5,347.5C 54.1739,347.334 61.8406,347.5 69.5,348C 74.1549,350.897 75.6549,355.063 74,360.5C 63.9551,377.871 53.1218,394.704 41.5,411C 36.0102,412.993 31.5102,411.493 28,406.5C 18.6369,390.994 9.13685,375.661 -0.5,360.5 Z M 25.5,365.5 C 33.1955,365.169 40.8622,365.503 48.5,366.5C 44.6667,372.833 40.8333,379.167 37,385.5C 32.8903,378.942 29.057,372.275 25.5,365.5 Z"/></g>
<g><path style="opacity:0.934" fill="#000000" d="M 511.5,469.5 C 511.5,472.5 511.5,475.5 511.5,478.5C 494.746,489.928 477.746,500.928 460.5,511.5C 457.833,511.5 455.167,511.5 452.5,511.5C 450.525,510.354 449.025,508.687 448,506.5C 447.5,498.841 447.334,491.174 447.5,483.5C 352.833,483.5 258.167,483.5 163.5,483.5C 163.666,491.174 163.5,498.841 163,506.5C 161.975,508.687 160.475,510.354 158.5,511.5C 155.833,511.5 153.167,511.5 150.5,511.5C 135.339,501.863 120.006,492.363 104.5,483C 96.5,477 96.5,471 104.5,465C 119.833,455.667 135.167,446.333 150.5,437C 155.937,435.345 160.103,436.845 163,441.5C 163.5,449.159 163.666,456.826 163.5,464.5C 258.167,464.5 352.833,464.5 447.5,464.5C 447.334,456.826 447.5,449.159 448,441.5C 450.897,436.845 455.063,435.345 460.5,437C 477.919,447.268 494.919,458.101 511.5,469.5 Z M 143.5,462.5 C 144.823,465.938 145.49,469.771 145.5,474C 145.167,477.833 144.833,481.667 144.5,485.5C 138.167,481.667 131.833,477.833 125.5,474C 131.734,470.392 137.734,466.559 143.5,462.5 Z M 465.5,462.5 C 472.275,466.057 478.942,469.89 485.5,474C 479.167,477.833 472.833,481.667 466.5,485.5C 465.503,477.862 465.169,470.196 465.5,462.5 Z"/></g>
</svg>
