<?xml version="1.0" encoding="UTF-8"?>
<!DOCTYPE svg PUBLIC "-//W3C//DTD SVG 1.1//EN" "http://www.w3.org/Graphics/SVG/1.1/DTD/svg11.dtd">
<svg xmlns="http://www.w3.org/2000/svg" version="1.1" width="512px" height="512px" style="shape-rendering:geometricPrecision; text-rendering:geometricPrecision; image-rendering:optimizeQuality; fill-rule:evenodd; clip-rule:evenodd" xmlns:xlink="http://www.w3.org/1999/xlink">
<g><path style="opacity:0.964" fill="#000000" d="M 411.5,68.5 C 424.455,66.6314 431.788,72.1314 433.5,85C 433.176,89.308 431.676,93.1414 429,96.5C 314.833,210.667 200.667,324.833 86.5,439C 71.5281,446.356 62.1948,442.022 58.5,426C 59.3298,423.198 60.1632,420.365 61,417.5C 83.3472,395.32 105.514,372.986 127.5,350.5C 117.311,342.907 105.977,337.74 93.5,335C 79.9067,333.142 66.24,332.142 52.5,332C 25.7744,325.941 9.94111,309.441 5,282.5C 4.33333,264.5 4.33333,246.5 5,228.5C 9.94111,201.559 25.7744,185.059 52.5,179C 77.7473,181.151 101.414,176.151 123.5,164C 151.878,140.62 180.544,117.62 209.5,95C 221.688,85.4065 235.355,78.7399 250.5,75C 282.736,72.5731 302.57,87.0731 310,118.5C 312.536,133.398 314.202,148.398 315,163.5C 346.757,131.242 378.923,99.5754 411.5,68.5 Z M 254.5,107.5 C 266.609,106.452 274.109,111.785 277,123.5C 279.564,134.344 280.897,145.344 281,156.5C 281.667,170.167 281.667,183.833 281,197.5C 238.167,240.333 195.333,283.167 152.5,326C 151.833,326.667 151.167,326.667 150.5,326C 133.23,312.236 113.563,303.903 91.5,301C 79.8394,300.228 68.1727,299.562 56.5,299C 46.9038,295.738 40.7371,289.238 38,279.5C 37.3333,263.5 37.3333,247.5 38,231.5C 40.6678,221.653 46.8344,215.153 56.5,212C 92.1214,214.435 124.121,205.102 152.5,184C 176.95,162.948 201.95,142.615 227.5,123C 235.943,116.781 244.943,111.615 254.5,107.5 Z"/></g>
<g><path style="opacity:0.961" fill="#000000" d="M 438.5,129.5 C 445.871,128.048 452.038,130.048 457,135.5C 499.816,191.057 510.483,252.391 489,319.5C 479.752,344.379 466.085,366.379 448,385.5C 437.5,396 427,406.5 416.5,417C 407.311,423.498 398.811,422.665 391,414.5C 387.728,408.139 387.728,401.806 391,395.5C 404.696,382.138 418.029,368.471 431,354.5C 465.226,311.237 474.892,262.903 460,209.5C 456.64,199.088 452.306,189.088 447,179.5C 441.058,169.893 434.725,160.56 428,151.5C 425.507,141.084 429.007,133.751 438.5,129.5 Z"/></g>
<g><path style="opacity:0.96" fill="#000000" d="M 386.5,183.5 C 392.346,183.164 397.18,185.164 401,189.5C 422.596,227.165 425.263,266.165 409,306.5C 400.28,324.898 388.114,340.731 372.5,354C 364.012,359.168 356.179,358.335 349,351.5C 344.333,344.5 344.333,337.5 349,330.5C 365.053,317.377 376.387,301.044 383,281.5C 389.737,257.022 387.071,233.688 375,211.5C 369.502,198.052 373.336,188.718 386.5,183.5 Z"/></g>
<g><path style="opacity:0.962" fill="#000000" d="M 296.5,274.5 C 305.23,274.437 311.063,278.437 314,286.5C 314.847,315.183 314.514,343.85 313,372.5C 312.397,389.64 307.397,405.306 298,419.5C 281.399,436.363 261.899,440.863 239.5,433C 219.263,423.809 201.43,411.309 186,395.5C 182.55,385.18 185.716,377.68 195.5,373C 199.167,372.333 202.833,372.333 206.5,373C 217.479,380.637 228.479,388.304 239.5,396C 243.5,398 247.5,400 251.5,402C 264.979,405.845 273.479,401.012 277,387.5C 278.515,381.925 279.515,376.258 280,370.5C 281.186,342.85 281.853,315.183 282,287.5C 284.561,280.43 289.394,276.096 296.5,274.5 Z"/></g>
</svg>
