<?xml version="1.0" encoding="UTF-8"?>
<!DOCTYPE svg PUBLIC "-//W3C//DTD SVG 1.1//EN" "http://www.w3.org/Graphics/SVG/1.1/DTD/svg11.dtd">
<svg xmlns="http://www.w3.org/2000/svg" version="1.1" width="512px" height="512px" style="shape-rendering:geometricPrecision; text-rendering:geometricPrecision; image-rendering:optimizeQuality; fill-rule:evenodd; clip-rule:evenodd" xmlns:xlink="http://www.w3.org/1999/xlink">
<g><path style="opacity:0.944" fill="#fef081" d="M 104.5,9.5 C 111.782,9.89108 117.282,13.2244 121,19.5C 134.05,43.4322 145.883,67.9322 156.5,93C 156.415,94.1074 156.081,95.1074 155.5,96C 153.37,97.5644 151.37,97.5644 149.5,96C 129.333,77.1667 109.833,57.6667 91,37.5C 85.1208,22.9282 89.6208,13.5949 104.5,9.5 Z"/></g>
<g><path style="opacity:0.944" fill="#fef081" d="M 405.5,9.5 C 421.142,13.1142 425.975,22.4475 420,37.5C 400.636,58.5314 380.302,78.5314 359,97.5C 357.933,96.8095 356.766,96.3095 355.5,96C 354.919,95.1074 354.585,94.1074 354.5,93C 365.117,67.9322 376.95,43.4322 390,19.5C 393.555,13.483 398.722,10.1497 405.5,9.5 Z"/></g>
<g><path style="opacity:1" fill="#ffc850" d="M 285.5,66.5 C 225.21,156.129 184.044,254.129 162,360.5C 159.507,373.123 157.341,385.789 155.5,398.5C 149.214,403.434 142.214,407.101 134.5,409.5C 127.552,408.72 123.885,404.887 123.5,398C 132.743,355.118 142.243,312.285 152,269.5C 152.667,267.833 152.667,266.167 152,264.5C 119.5,236 87,207.5 54.5,179C 46.5363,171.863 46.5363,164.863 54.5,158C 55.8333,157.667 57.1667,157.333 58.5,157C 103.269,153.127 147.936,148.627 192.5,143.5C 210.431,102.208 228.264,60.8745 246,19.5C 252.333,12.8333 258.667,12.8333 265,19.5C 271.848,35.1926 278.681,50.8593 285.5,66.5 Z"/></g>
<g><path style="opacity:0.99" fill="#ffdb63" d="M 285.5,66.5 C 296.299,92.2246 307.299,117.891 318.5,143.5C 363.064,148.627 407.731,153.127 452.5,157C 460.269,158.686 463.436,163.519 462,171.5C 460.939,174.562 459.106,177.062 456.5,179C 424,207.5 391.5,236 359,264.5C 367.524,307.604 376.857,350.604 387,393.5C 388.358,406.142 382.858,410.976 370.5,408C 332.167,385.167 293.833,362.333 255.5,339.5C 222.132,359.221 188.799,378.888 155.5,398.5C 157.341,385.789 159.507,373.123 162,360.5C 184.044,254.129 225.21,156.129 285.5,66.5 Z"/></g>
<g><path style="opacity:0.942" fill="#fef081" d="M -0.5,316.5 C -0.5,312.833 -0.5,309.167 -0.5,305.5C 1.08861,301.528 3.75528,298.362 7.5,296C 14.0546,293.955 20.7213,292.288 27.5,291C 50.1535,287.167 72.8201,284.333 95.5,282.5C 97.5314,284.249 97.8647,286.249 96.5,288.5C 72.557,302.639 47.8903,315.472 22.5,327C 11.7435,329.952 4.07685,326.452 -0.5,316.5 Z"/></g>
<g><path style="opacity:0.942" fill="#fef081" d="M 511.5,305.5 C 511.5,309.167 511.5,312.833 511.5,316.5C 506.923,326.452 499.256,329.952 488.5,327C 463.603,315.552 439.27,303.052 415.5,289.5C 412.521,285.446 413.521,282.779 418.5,281.5C 440.176,284.585 461.842,287.751 483.5,291C 490.279,292.288 496.945,293.955 503.5,296C 507.245,298.362 509.911,301.528 511.5,305.5 Z"/></g>
<g><path style="opacity:0.947" fill="#fef081" d="M 254.5,398.5 C 256.993,398.329 258.826,399.329 260,401.5C 265.529,428.838 270.029,456.338 273.5,484C 272.317,494.516 266.484,500.349 256,501.5C 245.516,500.349 239.683,494.516 238.5,484C 241.972,456.336 246.472,428.836 252,401.5C 252.698,400.309 253.531,399.309 254.5,398.5 Z"/></g>
</svg>
