<svg id="Icons" xmlns="http://www.w3.org/2000/svg" xmlns:xlink="http://www.w3.org/1999/xlink" viewBox="0 0 215 215">
    <defs>
        <style>.cls-1{fill:url(#Безымянный_градиент_2);}.cls-2{fill:#fff;fill-rule:evenodd;}</style>
        <linearGradient id="Безымянный_градиент_2" y1="107.5" x2="215" y2="107.5" gradientUnits="userSpaceOnUse">
            <stop offset="0" stop-color="#2aabee"/>
            <stop offset="1" stop-color="#229ed9"/>
        </linearGradient>
    </defs>
    <g id="Telegram">
        <circle id="Background" class="cls-1" cx="107.5" cy="107.5" r="107.5"/>
        <path id="Telegram-2" class="cls-2"
              d="M603.31,105.65q46.89-20.43,62.53-26.94c29.78-12.38,36-14.53,40-14.61A7.09,7.09,0,0,1,710,65.35a4.49,4.49,0,0,1,1.53,2.9,19.25,19.25,0,0,1,.18,4.23c-1.61,17-8.6,58.09-12.15,77.08-1.5,8-4.46,10.73-7.33,11-6.22.57-11-4.12-17-8.07-9.44-6.19-14.77-10-23.93-16.08-10.59-7-3.72-10.81,2.31-17.07,1.58-1.64,29-26.6,29.54-28.86a2.18,2.18,0,0,0-.5-1.9,2.49,2.49,0,0,0-2.22-.21q-1.41.31-45.22,29.89-6.42,4.41-11.63,4.3c-3.83-.09-11.19-2.17-16.67-4-6.71-2.18-12-3.33-11.58-7Q595.7,108.68,603.31,105.65Z"
              transform="translate(-554)"/>
    </g>
</svg>
